PathFileType	4	(X/Y/Z)	/Users/itak/Documents/Research/Walk-IL/dataset/trc/00159_00008.trc
DataRate	CameraRate	NumFrames	NumMarkers	Units	OrigDataRate	OrigDataStartFrame	OrigNumFrames
100.000000	100.000000	4	53	mm	100.000000	346	554
Frame#	Time	RPSI			LPSI			L3			STRN			T10			C7			CLAV			RBAK			LBAK			LSHO			LUPA			LAEL			LAOL			LWTS			LWPS			LFRA			LIFD			LHPS			LHTS			RSHO			RUPA			RAEL			RAOL			RWTS			RWPS			RFRA			RIFD			RHTS			RHPS			RBHD			LFHD			RFHD			LBHD			LHIP			RHIP			RASI			LASI			LKNE			LTHI			LANK			LTIP			LTOE			LMT1			LMT5			LHEE			RKNE			RTHI			RANK			RTIP			RTOE			RMT1			RMT5			RHEE			
		X1	Y1	Z1	X2	Y2	Z2	X3	Y3	Z3	X4	Y4	Z4	X5	Y5	Z5	X6	Y6	Z6	X7	Y7	Z7	X8	Y8	Z8	X9	Y9	Z9	X10	Y10	Z10	X11	Y11	Z11	X12	Y12	Z12	X13	Y13	Z13	X14	Y14	Z14	X15	Y15	Z15	X16	Y16	Z16	X17	Y17	Z17	X18	Y18	Z18	X19	Y19	Z19	X20	Y20	Z20	X21	Y21	Z21	X22	Y22	Z22	X23	Y23	Z23	X24	Y24	Z24	X25	Y25	Z25	X26	Y26	Z26	X27	Y27	Z27	X28	Y28	Z28	X29	Y29	Z29	X30	Y30	Z30	X31	Y31	Z31	X32	Y32	Z32	X33	Y33	Z33	X34	Y34	Z34	X35	Y35	Z35	X36	Y36	Z36	X37	Y37	Z37	X38	Y38	Z38	X39	Y39	Z39	X40	Y40	Z40	X41	Y41	Z41	X42	Y42	Z42	X43	Y43	Z43	X44	Y44	Z44	X45	Y45	Z45	X46	Y46	Z46	X47	Y47	Z47	X48	Y48	Z48	X49	Y49	Z49	X50	Y50	Z50	X51	Y51	Z51	X52	Y52	Z52	X53	Y53	Z53	

347	3.46	89.86606597900391	1046.197143554688	0.8003048300743103	104.1541519165039	1050.792236328125	-122.0338363647461	95.90941619873047	1086.827270507812	-57.85139846801758	350.4443359375	1305.10498046875	-37.5086784362793	55.34706115722656	1248.034301757812	-69.18013000488281	119.5894393920898	1517.625	-79.71041107177734	322.7305603027344	1418.817504882812	-52.43962097167969	44.61451721191406	1343.998291015625	27.78718376159668	123.7823104858398	1492.835327148438	-179.1096954345703	208.9654388427734	1480.960815429688	-249.0384216308594	181.4993896484375	1351.053344726562	-327.3177185058594	190.6688079833984	1135.056762695312	-346.2469787597656	143.3648986816406	1118.798828125	-274.4562683105469	291.7516784667969	898.1571655273438	-321.1242370605469	211.6844177246094	883.4235229492188	-366.3900756835938	201.5157928466797	1025.766235351562	-364.04248046875	289.9909362792969	717.9050903320312	-298.5312805175781	229.3074035644531	812.3657836914062	-364.9425354003906	299.47705078125	819.5504760742188	-343.6649169921875	164.4959869384766	1501.905639648438	107.3704833984375	138.786376953125	1436.842651367188	176.1007385253906	123.8070220947266	1148.354736328125	240.1149444580078	130.0066528320312	1139.874145507812	142.7289428710938	304.3514709472656	950.6231079101562	225.821044921875	232.5253601074219	916.0279541015625	264.4742431640625	159.4975433349609	1077.622192382812	258.9702453613281	358.4548034667969	771.7327270507812	194.9280700683594	348.5909118652344	863.4299926757812	232.8291320800781	276.3737487792969	840.4503784179688	259.9055786132812	186.5448608398438	1681.932250976562	4.629917144775391	349.1340637207031	1717.621337890625	-135.4897613525391	355.6459350585938	1721.328491210938	-6.457785606384277	170.8762512207031	1686.047973632812	-132.5531005859375	221.3397674560547	998.4813842773438	-228.8316802978516	227.7107238769531	1003.446350097656	143.1507720947266	311.8556518554688	1042.872192382812	96.14688873291016	338.2774658203125	1041.161743164062	-160.6823577880859	306.9658813476562	500.0953063964844	-161.3928680419922	292.3360290527344	643.34814453125	-198.8305053710938	208.1875915527344	37.91534042358398	-141.5141296386719	266.90087890625	269.1474914550781	-162.9188995361328	425.7073974609375	41.11726379394531	-106.7124710083008	375.482177734375	43.68337249755859	-60.19194412231445	317.1803283691406	32.68882369995117	-175.8224334716797	155.8038787841797	41.31510162353516	-74.62290191650391	386.6851806640625	518.404296875	141.5372467041016	329.7635803222656	791.1458740234375	157.9403839111328	42.24263000488281	170.2557373046875	63.31787109375	348.9768676757812	400.7101440429688	118.0044555664062	226.5751953125	55.85344696044922	98.71771240234375	196.7471313476562	78.81420135498047	37.32811737060547	114.5153656005859	104.4788970947266	127.5934829711914	25.41277503967285	195.3924865722656	-15.06980133056641	
348	3.47	99.41957855224609	1046.138427734375	0.3901550471782684	113.3837203979492	1050.6796875	-122.4993362426758	105.4898910522461	1086.599243164062	-58.60383224487305	359.9847717285156	1305.070190429688	-37.8780632019043	64.98995208740234	1248.196411132812	-70.47352600097656	129.4066925048828	1517.7314453125	-80.34618377685547	332.3643798828125	1418.834838867188	-52.57615280151367	53.96567535400391	1343.942749023438	26.46512603759766	133.9225463867188	1493.183349609375	-179.805908203125	219.3397674560547	1481.503173828125	-249.3808746337891	192.6412353515625	1351.807373046875	-328.1702880859375	203.3662872314453	1135.9931640625	-348.3871765136719	155.7278442382812	1119.015014648438	-277.0158996582031	306.6277465820312	900.005859375	-323.7105712890625	226.9397735595703	884.5824584960938	-369.4354858398438	215.3051452636719	1026.839965820312	-366.6122436523438	306.7303771972656	719.688232421875	-301.9430541992188	245.3212432861328	813.7455444335938	-368.2042846679688	315.3482971191406	821.6826171875	-346.6410827636719	173.6847686767578	1501.578857421875	106.8220901489258	147.4664764404297	1436.499267578125	175.2422790527344	131.4265747070312	1147.987548828125	239.1087951660156	138.3411560058594	1139.597900390625	141.7320251464844	313.1978149414062	951.3182373046875	225.6388397216797	241.2468109130859	915.9866943359375	263.3964538574219	167.2935791015625	1077.21923828125	258.0420227050781	369.3580627441406	773.2241821289062	194.4466705322266	358.1392517089844	864.582763671875	232.7704010009766	285.8243103027344	840.752685546875	258.8819580078125	196.2366333007812	1681.655883789062	4.912503719329834	359.8172607421875	1717.8984375	-134.0746612548828	365.4761047363281	1720.689453125	-4.924276351928711	181.4587249755859	1686.714477539062	-132.3434600830078	229.8486175537109	998.011962890625	-229.4592742919922	237.9403533935547	1004.166870117188	142.3406066894531	321.8111572265625	1043.378051757812	94.60342407226562	347.3567810058594	1040.882080078125	-162.2848205566406	309.5789184570312	499.4819641113281	-162.3073883056641	296.8477478027344	642.8886108398438	-199.5133819580078	208.2969512939453	37.98272705078125	-141.4121246337891	267.9376525878906	268.9134521484375	-163.3009185791016	425.8086547851562	40.93457794189453	-106.8191604614258	375.5462341308594	43.65951538085938	-60.32841491699219	317.1682434082031	32.54951095581055	-176.0100555419922	155.9077301025391	41.53712844848633	-74.40149688720703	404.9911193847656	521.9679565429688	140.8062286376953	342.9566650390625	793.681884765625	157.4178771972656	74.11873626708984	159.7147979736328	63.9659309387207	370.8294677734375	402.8067016601562	117.7512817382812	263.8256225585938	54.96513748168945	100.6984252929688	233.1201019287109	75.94754791259766	39.14662933349609	149.3875885009766	98.26294708251953	128.9030609130859	56.09092712402344	183.3285522460938	-14.62656116485596	
349	3.48	108.9234085083008	1045.964233398438	0.1051080524921417	122.5464553833008	1050.433227539062	-122.831916809082	114.9463195800781	1086.292114257812	-59.20774078369141	369.5069580078125	1304.8271484375	-38.27290344238281	74.58102416992188	1248.2119140625	-71.61544799804688	139.2085571289062	1517.68603515625	-80.90384674072266	341.9898681640625	1418.651000976562	-52.71843338012695	63.31939697265625	1343.739379882812	25.28039741516113	144.0012969970703	1493.364624023438	-180.4334106445312	229.62890625	1481.859252929688	-249.6861572265625	203.7110748291016	1352.360107421875	-328.9386291503906	216.0772247314453	1136.7578125	-350.4488220214844	168.1404113769531	1119.033569335938	-279.4998474121094	321.6098937988281	901.7557373046875	-326.1974487304688	242.3037109375	885.6099853515625	-372.3861999511719	229.1455230712891	1027.75634765625	-369.0810852050781	323.5784301757812	721.36962890625	-305.1846923828125	261.4573364257812	815.0003051757812	-371.3471374511719	331.3642272949219	823.7456665039062	-349.5120239257812	182.9856872558594	1501.064819335938	106.3565063476562	156.2565155029297	1435.970092773438	174.4578704833984	139.1218566894531	1147.460205078125	238.2090759277344	146.6785125732422	1139.131958007812	140.8504638671875	321.9546508789062	951.72998046875	225.4471130371094	249.9291381835938	915.7507934570312	262.448486328125	175.1411590576172	1076.651245117188	257.2138061523438	379.9758911132812	774.3854370117188	194.0025177001953	367.5299987792969	865.4317626953125	232.6874847412109	295.1634826660156	840.8290405273438	257.977294921875	205.8915252685547	1681.175048828125	5.262565612792969	370.3986206054688	1718.045288085938	-132.5651702880859	375.2341003417969	1719.890869140625	-3.330679655075073	191.9996795654297	1687.200927734375	-132.0768280029297	238.2832489013672	997.4669799804688	-230.0282745361328	248.1998748779297	1004.71240234375	141.5722351074219	331.7692565917969	1043.661254882812	93.12534332275391	356.3609313964844	1040.474243164062	-163.8179931640625	312.2730407714844	498.8447875976562	-163.1298065185547	301.4466552734375	642.3867797851562	-200.1258850097656	208.423583984375	38.07624816894531	-141.2924652099609	269.0624694824219	268.6641845703125	-163.6065826416016	425.91357421875	40.74468994140625	-106.9122848510742	375.6162719726562	43.63149642944336	-60.45352554321289	317.1562194824219	32.42774963378906	-176.1724853515625	156.0156707763672	41.76974105834961	-74.15584564208984	422.9307861328125	525.421142578125	140.0234375	356.0254211425781	796.0430297851562	156.8519592285156	106.6947402954102	148.9915771484375	65.08662414550781	392.3999633789062	404.8354797363281	117.506477355957	301.400146484375	54.36722564697266	102.908317565918	269.8740234375	73.30000305175781	41.22668075561523	184.8139495849609	92.06977081298828	130.5958862304688	87.42225646972656	171.0334930419922	-13.67182731628418	
350	3.49	118.3780975341797	1045.673217773438	-0.06268684566020966	131.6472930908203	1050.061401367188	-123.0399398803711	124.2927856445312	1085.905151367188	-59.6685905456543	379.0074768066406	1304.381103515625	-38.68865585327148	84.1246337890625	1248.08349609375	-72.59373474121094	148.9957580566406	1517.4931640625	-81.38108062744141	351.6068420410156	1418.273559570312	-52.8645133972168	72.68733215332031	1343.3955078125	24.24310493469238	154.0157775878906	1493.378295898438	-180.9888000488281	239.8365173339844	1482.031982421875	-249.951416015625	214.715576171875	1352.7197265625	-329.6297912597656	228.7880859375	1137.359252929688	-352.4267272949219	180.5780944824219	1118.865234375	-281.9061889648438	336.6833801269531	903.4296264648438	-328.5807495117188	257.744384765625	886.5137329101562	-375.2197265625	243.0215759277344	1028.521362304688	-371.4401550292969	340.5321960449219	722.9508666992188	-308.2703857421875	277.6955261230469	816.1406860351562	-374.3580017089844	347.5159912109375	825.7658081054688	-352.2798156738281	192.39794921875	1500.375366210938	105.9738845825195	165.1587219238281	1435.269409179688	173.751708984375	146.9210205078125	1146.784545898438	237.4048919677734	155.0481872558594	1138.489501953125	140.0747375488281	330.6306762695312	951.8407592773438	225.2423400878906	258.5695495605469	915.3187255859375	261.6319885253906	183.0584564208984	1075.929809570312	256.4778747558594	390.2627868652344	775.1695556640625	193.6073303222656	376.7475891113281	865.9418334960938	232.5799560546875	304.3649597167969	840.669189453125	257.1977844238281	215.5162658691406	1680.495849609375	5.677881717681885	380.8818359375	1718.062622070312	-130.9714660644531	384.9316101074219	1718.939819335938	-1.691164374351501	202.492919921875	1687.5029296875	-131.7474822998047	246.6648101806641	996.850830078125	-230.5369110107422	258.462890625	1005.081787109375	140.8474273681641	341.7229309082031	1043.729370117188	91.73628997802734	365.2987976074219	1039.940795898438	-165.2616882324219	315.0667114257812	498.1820678710938	-163.849609375	306.1534423828125	641.8412475585938	-200.6554565429688	208.5587768554688	38.19808959960938	-141.1509399414062	270.2689819335938	268.4048156738281	-163.8355102539062	426.0292358398438	40.55363464355469	-106.9887390136719	375.6980590820312	43.5992431640625	-60.55702590942383	317.1416320800781	32.32553100585938	-176.3024597167969	156.1178131103516	42.01266860961914	-73.90316772460938	440.4635314941406	528.722412109375	139.1856079101562	368.9281311035156	798.2017211914062	156.2603302001953	139.9194030761719	138.2457580566406	66.66411590576172	413.6675109863281	406.7925109863281	117.2567672729492	339.1972961425781	54.14466857910156	105.339729309082	306.9087524414062	70.94370269775391	43.56039810180664	220.7282562255859	86.05366516113281	132.6581878662109	119.3850479125977	158.6449279785156	-12.22128963470459	
